<?xml version="1.0" encoding="UTF-8"?><svg id="Artwork" xmlns="http://www.w3.org/2000/svg" viewBox="0 0 1000 1000"><path d="M941.4017,463.3225c3.844.8148,7.8712.2129,14.7144-1.0827,11.6451-2.2046,16.0164-2.4629,15.8563,14.6022-.8757,93.3348-1.7514,186.6695-2.6271,280.0042-.2015,21.4783-2.771,47.1048-21.7089,57.2397-11.3552,6.0769-25.1385,4.3111-37.8426,2.1955-56.6586-9.4353-112.691-22.6243-167.6143-39.4357-40.3651-12.3553-100.0314-18.2921-94.1826-73.1369,1.5824-14.8404,9.5422-28.8921,21.4573-37.8794,0-3.4407-17.8079-15.3357-20.8182-17.934-5.26-4.5401-11.326-9.7553-10.6446-17.4953.3599-4.088,2.2208-7.8685,3.9692-11.5812,6.0661-12.8807,11.2-26.4652,12.2497-40.6641,1.0497-14.1989-2.3865-29.1871-11.7658-39.8987-1.8524-2.1177,15.1498-17.8036,16.9057-19.1101,7.5031-5.583,16.0741-9.7458,25.139-12.0685-19.0801-35.3519,8.4211-78.4245,45.1529-87.8933,16.2374-4.1857,34.963.5331,45.8321,13.3016-5.3181-11.2256,2.3875-25.138,13.3365-31.0045,18.3686-9.8421,43.8039-10.3421,61.9557-.1093,14.4598,8.1514,31.9165,27.9301,30.2709,45.6357,15.7631-5.5425,32.6156-1.2836,45.9204,8.302,6.6145,4.7655,10.4294,7.1618,14.4441,8.0128Z" style="fill:#fff; stroke-width:0px;"/><path d="M548.0823,598.6868c5.4076,3.0525,9.9199,7.4734,13.9398,12.1578,1.8884,2.2006,3.7557,4.4405,5.2554,6.9315.6646,1.1038,1.2383,2.26,1.7645,3.4353.3809.8509.829,1.9847,1.2908,3.1557,2.1384,5.4224,4.4184,10.7241,9.2204,14.3256,5.4305,4.0729,12.6004,5.0381,19.0674,6.3487,3.4647.7022,6.8112,1.6055,9.9739,3.0869,3.35,1.5692,6.6835,3.2432,10.3874,3.7618,1.7262.2417,3.4708-.4208,3.9753-2.2571.4155-1.5122-.5175-3.7318-2.2571-3.9753-3.1007-.4341-5.6958-1.6257-8.4769-2.9375-2.9853-1.4082-5.9972-2.5713-9.2134-3.3319-6.1855-1.4626-13.0535-1.8889-18.6217-5.2124-4.3479-2.5952-6.1894-7.391-7.9529-11.8569-1.0069-2.5498-2.0164-5.1285-3.3985-7.5035-1.5706-2.699-3.6302-5.1754-5.6231-7.5691-4.5509-5.4661-9.838-10.623-16.0693-14.1405-3.627-2.0474-6.8884,3.534-3.2622,5.5809h0Z" style="fill:#ec6955; stroke-width:0px;"/><path d="M558.5396,583.2501c10.664,3.4883,19.5224,11.1875,24.8003,21.1629,1.4653,2.7695,2.7795,5.6382,4.572,8.2195,1.843,2.6542,4.0575,4.8884,6.7719,6.6527,5.1799,3.3668,11.4077,4.5938,17.4414,5.3289,6.9062.8415,14.2532.8705,20.6589,3.9184,1.5751.7495,3.4883.4361,4.4215-1.1594.8239-1.4087.4235-3.6684-1.1594-4.4215-6.327-3.0104-13.1806-3.7068-20.0678-4.3892-5.506-.5456-11.4726-1.2545-16.3949-3.8909-2.4538-1.3143-4.4546-2.9448-6.0908-5.3011-1.7526-2.5239-3.0468-5.3233-4.474-8.0342-2.7961-5.3111-6.4949-10.153-10.9987-14.1331-5.1774-4.5753-11.1944-8.0371-17.7623-10.1855-1.6586-.5425-3.5286.6314-3.9753,2.2571-.4819,1.7539.5923,3.4308,2.2571,3.9753h0Z" style="fill:#ec6955; stroke-width:0px;"/><path d="M565.7193,567.6803c11.3391-2.0498,21.3309,7.0402,29.7211,13.2649,9.2497,6.8624,19.7076,11.9618,30.885,14.8049,6.268,1.5943,12.7349,2.483,19.1987,2.6705,1.746.0506,3.2317-1.5216,3.2317-3.2317,0-1.7933-1.48-3.1809-3.2317-3.2317-11.0606-.3208-22.0976-2.915-32.1122-7.6645-5.2764-2.5024-10.2099-5.5818-14.8918-9.0638-4.7052-3.4994-9.2733-7.2712-14.4835-10.0151-6.1972-3.2637-13.0538-5.028-20.0355-3.7659-1.7186.3107-2.6897,2.4011-2.2571,3.9753.4971,1.809,2.2518,2.5687,3.9753,2.2571h0Z" style="fill:#ec6955; stroke-width:0px;"/><path d="M568.1495,555.9776c2.2523-.5594,4.9528-.608,7.1028-.2448,2.6784.4525,5.2787,1.2769,7.8284,2.1986,5.3009,1.9163,10.4854,4.3463,16.0631,5.3704,6.6499,1.2211,13.1853.131,19.6762-1.453,5.7459-1.4022,10.9338-2.9367,16.6122-2.8674,1.3823.0169,2.8083.1252,3.7738.2901,1.3739.2346,2.7327.5779,4.0407,1.0616.7229.2673.6205.224,1.412.6394.6003.315,1.18.6656,1.7391,1.0491.6341.4349,1.8236,1.5843,2.5897,2.5321,1.098,1.3584,3.4279,1.1424,4.5703,0,1.3427-1.3427,1.1007-3.2085,0-4.5703-7.652-9.4669-21.4097-8.0613-31.8847-5.5024-6.4384,1.5728-13.0299,3.607-19.7348,2.7657-5.247-.6584-10.852-3.2043-16.0196-5.1356-6.2566-2.3383-12.8381-4.0174-19.4872-2.3659-4.0346,1.0021-2.3255,7.2368,1.7182,6.2325h0Z" style="fill:#ec6955; stroke-width:0px;"/><path d="M339.7444,614.1731c13.4143,82.8467,80.3479,154.4358,162.1069,173.3823,5.7686,1.3368,13.2081,1.7623,16.1844-3.3569,2.8855-4.9631-.8013-11.015-4.1029-15.7123-43.5416-61.9485-33.2735-142.8513-3.5049-208.2655,29.818-65.5227,74.0304-132.7225,150.1431-146.003,5.6556-.9868,12.5419-2.6591,14.011-8.209,1.5152-5.7243-4.0461-10.684-9.0704-13.8178-71.2096-44.4152-169.1599-41.1232-237.2267,7.9728" style="fill:#62bfa5; stroke-width:0px;"/><path d="M566.5724,538.7113c-1.4952-16.0576-8.6941-30.7697-24.0159-39.1434-45.3947-24.8092-78.3242-67.0572-118.8119-99.2584-49.5312-39.3938-111.0436-63.5125-174.1503-68.2833-55.9994-4.2335-109.7713,7.5125-162.5335,24.8054-6.5252,2.1387-13.4294,4.5325-17.7196,9.894-11.526,14.4045,13.9821,66.499,21.2184,81.1905,16.2335,32.9578,39.2049,62.3883,67.0792,86.3077,62.6207,53.736,145.3061,76.4801,226.2075,82.3425,32.2813-2.5825,67.3437-4.0525,98.3433,7.1497,16.8771,6.0988,24.7867,4.6278,40.7894-4.2815,14.5802-8.1174,26.8044-20.5451,34.3994-35.4273,6.8555-13.4331,10.6203-29.9769,9.1938-45.296Z" style="fill:#62bfa5; stroke-width:0px;"/><path d="M242.5625,429.5767c6.0168-18.0844,7.896-38.1884,9.3927-57.3656.6808-8.7237,1.3414-17.6679-1.0628-26.0826-7.7295-27.0485-48.872-14.6507-69.8221-11.8804-32.0162,4.2335-63.3641,12.5395-94.0097,22.5837-6.5251,2.1386-13.4292,4.5325-17.7193,9.8939-11.526,14.4045,13.9821,66.499,21.2195,81.1926,10.5776,21.4753,27.858,64.966,58.3408,60.8875,9.333-1.2487,17.6984-6.2029,25.7705-11.0512,28.1497-16.9074,57.0179-35.4991,67.8905-68.1779Z" style="fill:#ec6955; stroke-width:0px;"/><path d="M241.4045,335.9054c5.5783,14.8192,8.244,30.3411,8.0638,46.1221-.1797,15.7333-3.1947,31.2729-8.9583,45.9935-5.4819,14.0012-13.6846,26.9732-23.7692,37.9689-9.9601,10.8598-21.4266,19.7606-34.3515,26.8074-12.8314,6.9959-26.7264,11.8409-41.2885,14.2521-1.8379.3043-3.351.5185-5.0168.7175-1.7328.207-3.2317,1.3371-3.2317,3.2317,0,1.586,1.487,3.4401,3.2317,3.2317,15.4259-1.8426,30.359-6.2894,44.3091-13.1305,13.6985-6.7177,26.3313-15.7505,37.1062-26.5543,10.9904-11.0199,20.0647-23.9715,26.453-38.1719,6.8115-15.141,10.7766-31.4208,11.7553-47.9953.9615-16.2823-1.0316-32.8465-6.0369-48.3796-.6296-1.9539-1.3107-3.8902-2.0338-5.8114-.6145-1.6325-2.1825-2.7498-3.9753-2.2571-1.5665.4305-2.8752,2.3334-2.2571,3.9753h0Z" style="fill:#184968; stroke-width:0px;"/><path d="M261.7886,334.3438c5.5171,18.1511,8.5051,36.9891,8.8434,55.9581.2912,16.3282-1.4483,31.7476-6.226,47.378-4.5061,14.7418-11.2684,28.7107-20.3402,41.3091-8.9571,12.4392-20.5471,23.2428-33.928,31.1139-14.3744,8.4554-30.7187,13.809-47.2856,15.2963-2.115.1899-4.2346.3168-6.3567.3918-1.7449.0616-3.2317,1.4412-3.2317,3.2317,0,1.7031,1.4793,3.2936,3.2317,3.2317,17.7198-.6261,35.1757-5.2145,50.9519-13.2987,14.6656-7.515,27.5815-18.1165,37.8573-30.9901,10.1462-12.7111,17.9149-27.1437,23.3258-42.4687,5.4057-15.3103,8.1575-31.3446,8.4614-47.5651.3684-19.6606-2.0252-39.4305-7.103-58.4288-.6158-2.3039-1.2744-4.5958-1.9679-6.8774-1.2063-3.9688-7.4468-2.277-6.2325,1.7182h0Z" style="fill:#f9c7c7; stroke-width:0px;"/><path d="M392.6777,620.0372c6.7657,18.158,4.8661,38.489,13.3272,56.1369,4.3644,9.1032,11.6854,17.0034,21.8577,19.2204,10.2753,2.2394,20.5102-.6011,30.6744-2.0151.6944-.0966-.7749.0937.4335-.0564.3095-.0385.6192-.0752.9292-.1101.622-.07,1.2449-.1324,1.8685-.1862,1.2491-.1076,2.5012-.1809,3.7546-.2107,1.244-.0296,2.4891-.0167,3.7318.05,1.1436.0614,2.3863.1817,3.1533.3055,1.1815.1906,2.3529.4441,3.5035.7742,1.0603.3042,2.1875.7106,2.855,1.0234,2.2939,1.075,3.7911,2.1393,5.4753,3.9046,2.877,3.0155,7.4428-1.5595,4.5703-4.5703-6.4314-6.7411-16.0444-8.361-24.9793-7.8852-9.5748.5099-18.8751,3.5371-28.5043,3.3568-4.6283-.0866-9.1845-1.0619-13.1607-3.6481-3.7835-2.4609-6.6757-6.1689-8.9256-10.0686-4.5744-7.9289-6.4118-17.2035-7.8296-26.2811-1.6521-10.5777-2.7391-21.3584-6.5022-31.458-.6091-1.6346-2.1865-2.7487-3.9753-2.2571-1.571.4317-2.8696,2.3315-2.2571,3.9753h0Z" style="fill:#f9c7c7; stroke-width:0px;"/><path d="M437.8991,694.6747c6.7391,13.8529,14.724,27.0883,23.8392,39.5077,9.1552,12.474,19.3663,24.1633,30.578,34.8302,6.2838,5.9785,12.8738,11.6295,19.7322,16.9387,1.3787,1.0673,3.2264,1.3439,4.5703,0,1.1131-1.1131,1.3881-3.4957,0-4.5703-12.0719-9.345-23.3001-19.7635-33.5182-31.1063-10.1295-11.2445-19.2273-23.3865-27.1854-36.2595-4.5243-7.3185-8.6713-14.8657-12.4351-22.6026-.7634-1.5693-2.9971-1.9925-4.4215-1.1594-1.6021.9371-1.9256,2.8464-1.1594,4.4215h0Z" style="fill:#f9c7c7; stroke-width:0px;"/><path d="M564.8715,541.4905c14.7902,4.0512,30.5409,4.2829,45.4593.7459,4.2025-.9964,8.3202-2.3116,12.3302-3.9144h-1.7182c3.7914.8788,7.5829,1.7576,11.3743,2.6365,1.374.3185,2.7509.6267,4.1224.9555,3.2579.781,5.9154,2.2738,8.2012,4.6965,1.1419,1.2103,1.9555,2.3936,2.8006,4.1141.5921,1.2054,1.1431,2.9947,1.4259,4.7102.0501.3037.0911.6088.1346.9135.1171.8203-.0423-.3631.0137.0972.0644.529.1336,1.0574.1944,1.5868.129,1.1238.24,2.2497.3333,3.3771.4318,5.2182.4891,10.467.1912,15.6943-.0861,1.5115-.2021,3.0213-.3474,4.5283-.0705.7307-.1481,1.4607-.2323,2.1899-.0399.3455-.0813.6908-.1244,1.0359-.0248.1987-.0506.3973-.0759.596-.1216.9576.0524-.3653-.0259.1907-.4642,3.2951-1.0573,6.5701-1.7925,9.8157-1.6232,7.1653-4.0154,14.5404-6.8461,21.0531-3.4818,8.0107-7.7856,15.6536-12.7306,22.8507-2.7213,3.9607-5.6385,7.777-8.7344,11.452-1.3381,1.5883-2.93,3.5469-4.3824,4.6998-1.502,1.1922-3.248,2.0811-4.8431,2.5992-3.8598,1.2538-7.1036.8492-11.0632-.3162-2.1982-.647-4.3774-1.3587-6.5338-2.1338-1.7817-.6404-4.0306-1.5125-5.4808-2.1271-4.6426-1.9676-9.232-4.2218-13.4846-6.9442-.1967-.1259-.3935-.2521-.5865-.3837l1.1594,1.1594c-6.0987-11.9328-11.8148-24.5388-23.0242-32.5823-3.3144-2.3783-6.9689-4.1652-10.7605-5.6456-1.6263-.635-3.547.6982-3.9753,2.2571-.5029,1.8303.6249,3.338,2.2571,3.9753,4.6819,1.8281,9.2229,4.6025,12.7825,7.979,3.6794,3.4902,6.0046,6.7811,8.636,11.1894,2.7821,4.6605,5.1747,9.5422,7.6314,14.378.5678,1.1176,1.0005,2.1516,2.0709,2.8973.1906.1328.3887.2559.5844.3809.976.6232,1.9744,1.2117,2.9819,1.7822,4.2843,2.4261,8.7654,4.4922,13.33,6.3314,3.0041,1.2105,6.0582,2.2967,9.1523,3.2541,3.1589.9774,6.3422,1.8767,9.681,1.8179,6.3602-.1121,12.3338-2.9896,16.5112-7.752,4.8126-5.4866,9.2743-11.3132,13.2882-17.4089,12.2872-18.6598,20.0261-40.213,21.4079-62.5643.4678-7.5671.1527-15.1412-.8782-22.6495-.7347-5.3507-3.1283-10.3893-7.1727-14.0441-3.1868-2.8798-6.9517-4.5873-11.0994-5.5487l-10.1176-2.3452c-1.2552-.2909-2.5081-.5954-3.7664-.873-.44-.0971-.8691-.2243-1.3287-.2243-.884,0-1.712.4581-2.5231.7654-.9743.3691-1.9557.7198-2.9429,1.0528-12.68,4.2771-26.4579,5.615-39.7078,3.6052-3.3864-.5137-6.7352-1.2346-10.0383-2.1393-4.0172-1.1004-5.7314,5.1332-1.7182,6.2325h0Z" style="fill:#184968; stroke-width:0px;"/><path d="M306.7184,518.6698c13.4568,11.0472,32.4946,15.466,50.9031,8.0593,20.6568-8.3115,33.2985-31.8796,30.5759-53.7143-3.1262-25.0711-26.1737-46.0805-51.635-45.928-22.1168.1325-41.1113,20.508-46.5459,40.7319-5.4426,20.2536,2.5384,39.2237,16.7018,50.851Z" style="fill:#fff; stroke-width:0px;"/><path d="M466.9595,440.8595c16.1328-11.5182,34.3613-19.8839,53.6317-24.5423,4.9092-1.1867,9.8772-2.142,14.8797-2.8394,5.194-.7241,10.4595-1.1358,15.5484-2.4655,8.9388-2.3356,18.1665-8.4066,19.6712-18.2219.9308-6.0715-1.1319-11.9691-1.4936-17.798-.146-2.3534-.0607-4.101.4996-6.1078.3328-1.1921.4398-1.5074,1.1295-2.6035.3712-.59.2152-.3951.7022-.9083.4216-.4443.6586-.6415.8804-.7978,1.4246-1.0043,2.0937-2.8241,1.1594-4.4215-.8242-1.409-2.9878-2.1702-4.4215-1.1594-3.9729,2.8009-5.7969,7.0331-6.3198,11.7586-.5296,4.7857.6681,9.4697,1.3746,14.1714.356,2.3693.5658,4.9278.0489,7.2859-.4194,1.9131-1.2505,3.6427-2.2812,5.005-2.4168,3.1941-6.0493,5.3821-9.5678,6.6219-5.0117,1.766-10.3085,2.3233-15.5474,2.994-5.0457.646-10.0606,1.4698-15.0282,2.5702-9.8679,2.1858-19.4707,5.359-28.7559,9.3419-10.351,4.44-20.2062,9.9916-29.3723,16.5358-1.4185,1.0127-2.0974,2.8177-1.1594,4.4215.82,1.4019,2.9936,2.1788,4.4215,1.1594h0Z" style="fill:#f9c7c7; stroke-width:0px;"/><path d="M530.158,415.8758c-.2288-.2834.3162.5031.3796.6112.2008.342.373.6952.5492,1.0498.2861.5759.1406.2965.0799.1564.0892.2058.1689.4177.2513.626.1647.4165.3234.8354.4911,1.2507.7374,1.8262,1.5306,3.5316,2.8814,4.9949,2.5254,2.7357,6.6149,3.8072,10.1237,4.5823,3.907.863,7.9222,1.5452,11.921,1.7264,4.6738.2117,9.3649-.2563,13.9616-1.0909,17.6945-3.2127,33.1881-13.0042,50.3604-17.8958,4.5492-1.2959,9.3895-2.495,14.1504-2.4308,2.1945.0296,4.1335.4739,5.7612,1.543.3202.2103.3761.2513.7641.6189.1738.1646.3423.3371.5031.5142.0339.0374.3471.4241.1662.1796.2368.3201.6174.9842.6892,1.1554-.1005-.2398.0926.2986.0846.272-.0005-.0016.2144.9823.1606.5299.2058,1.7329,1.338,3.2317,3.2317,3.2317,1.5869,0,3.4389-1.4869,3.2317-3.2317-.5126-4.3162-3.1781-7.911-7.1596-9.718-4.6502-2.1105-9.7368-1.6552-14.6377-.8571-8.8205,1.4365-17.2191,4.6402-25.4301,8.0688-16.3064,6.8091-33.4188,15.1237-51.5856,11.9998-1.9809-.3406-3.9613-.6981-5.9109-1.1912-1.0074-.2548-2.0075-.5435-2.9848-.8975-.7669-.2778-1.1644-.4289-2.0529-.9992-.5157-.331-.8232-.6577-1.1705-1.214-.2625-.4204-.4824-.8623-.6942-1.3098-.1579-.3338-.0359-.0582-.0061.0103-.1111-.2554-.2091-.5176-.311-.7769-.8677-2.2073-1.7287-4.2216-3.2283-6.0787-1.0974-1.3589-3.4283-1.142-4.5703,0-1.3431,1.3431-1.1001,3.2079,0,4.5703h0Z" style="fill:#f9c7c7; stroke-width:0px;"/><path d="M304.4333,520.9549c9.3436,7.6122,20.799,12.2283,32.8963,12.6368,11.8737.4009,23.8005-3.3741,33.1818-10.6566,16.6225-12.9036,24.8157-35.8291,19.7806-56.302-4.9877-20.2805-22.2916-37.2316-42.7422-41.611-10.88-2.3299-21.8354-.9322-31.6224,4.4305-9.6449,5.2848-17.5976,13.7094-23.0422,23.2057-5.6307,9.8208-8.7105,21.264-7.5967,32.6116,1.1121,11.3312,5.9153,21.9109,13.5448,30.3483,1.7326,1.916,3.6095,3.6911,5.5999,5.3368,1.3441,1.1113,3.2541,1.3162,4.5703,0,1.1449-1.1449,1.3516-3.4527,0-4.5703-7.7566-6.4135-13.4043-14.7194-15.9795-24.3357-2.6523-9.9042-1.6567-20.415,2.3929-30.0531,3.5934-8.5523,9.953-16.9922,17.3409-22.7544,3.843-2.9974,8.2869-5.4829,12.5998-6.9559,4.7859-1.6345,8.985-2.1766,14.036-1.897,18.2326,1.0095,35.5253,14.1887,42.3928,30.9898,7.1717,17.5453,2.8918,37.9172-9.9096,51.5945-7.0234,7.504-15.858,12.0793-26.1439,13.6996-10.4971,1.6536-21.4648-.7157-30.6163-6.0764-2.149-1.2588-4.274-2.713-6.1132-4.2114-1.352-1.1015-3.2479-1.3224-4.5703,0-1.1377,1.1377-1.3599,3.4623,0,4.5703Z" style="fill:#184968; stroke-width:0px;"/><path d="M359.5797,476.7493c-4.8948-3.2903-12.8068-2.2094-14.9791-8.8419-1.0288-3.1407-.5176-6.5559.0842-9.8052,1.7884-9.634,4.3405-19.1194,7.549-28.3779-5.0106-1.7042-10.2778-2.6699-15.6713-2.6376-3.3695.0203-6.6517.5594-9.8391,1.447-6.5307,19.4261-11.6685,41.8092,1.2266,55.2906,3.4557,3.6135,8.157,6.3142,10.1074,10.9187,3.4463,8.1363-2.0514,16.2391-4.1259,23.8449-1.0152,3.7237-2.1208,7.4112-3.2811,11.0799,8.6462,1.4817,17.8847.7172,26.9716-2.939.0126-.005.0231-.0118.0358-.0168,2.3059-9.4833,4.6687-18.9829,6.5233-28.5759,1.3423-7.6208,1.821-17.0694-4.6013-21.387Z" style="fill:#f9c7c7; stroke-width:0px;"/><path d="M361.2108,473.9589c-2.4264-1.5811-5.2792-2.2688-8.0181-3.0929-.6092-.1833-1.2164-.3745-1.8137-.5939-.189-.0694-.7996-.3278-.294-.102-.3432-.1532-.682-.3166-1.0108-.4987-.2438-.135-.4726-.2935-.7134-.4323-.1088-.0627-.4845-.3669-.0145.0139-.107-.0866-.2159-.1755-.3148-.2714-.2014-.1953-.3952-.3938-.5899-.5955-.3368-.349.2495.3921-.0248-.0211-.1092-.1645-.2177-.3276-.3172-.4984-.0802-.1376-.4318-.9326-.2731-.5032-.1419-.3841-.2577-.7799-.3531-1.178-.212-.8851-.2435-1.7808-.2256-2.6894.0397-2.0127.4411-3.9853.8226-5.9549.8246-4.2572,1.798-8.4855,2.9106-12.6766,1.2777-4.8133,2.7439-9.5738,4.369-14.2809.5921-1.7151-.6868-3.4488-2.2571-3.9753-5.01-1.6797-10.2891-2.668-15.58-2.7484-2.8275-.043-5.6555.2511-8.4299.7927-1.1893.2321-2.492.4376-3.6048.928-1.6502.7273-1.9881,2.4258-2.4982,3.983-2.7713,8.4607-5.1033,17.1192-5.9514,26.0066-.7803,8.1769-.0288,16.759,3.9228,24.0965,1.9789,3.6744,4.7734,6.6877,7.908,9.4002,3.1514,2.7271,6.0782,5.0688,6.9101,9.2227.9281,4.6343-1.4548,9.7449-3.1405,14.1459-2.0442,5.3373-3.3755,10.9254-5.0948,16.3735-.4862,1.5407.5756,3.6948,2.2571,3.9753,6.0776,1.014,12.1346,1.0529,18.2149.0272,3.1045-.5237,6.1589-1.3452,9.1108-2.4394,1.875-.695,3.1719-1.1779,3.7723-3.275.4689-1.6376.8106-3.3257,1.2128-4.9811,1.5001-6.1728,2.9771-12.3524,4.2781-18.5707,1.0598-5.0657,2.1162-10.2648,1.819-15.4698-.32-5.6066-2.2428-10.8205-6.9885-14.1166-1.4342-.9961-3.5892-.2638-4.4215,1.1594-.9404,1.6077-.2782,3.4231,1.1594,4.4215,1.0106.7019,1.8595,1.7218,2.5651,3.1436.0939.1896.1832.3813.2678.5752-.124-.2802-.1149-.2402.0275.12.1272.4139.273.8194.3854,1.2383.0853.3181.161.6388.2286.961.0235.112.2344,1.3195.1592.794.2614,1.8276.2429,3.7121.1341,5.5506-.0486.8211-.1225,1.6406-.2153,2.4578-.0264.2322-.0544.4642-.0839.696.0393-.2823.0307-.2237-.0257.1759-.0678.4531-.1369.9059-.2122,1.3578-1.6394,9.8407-4.2816,19.5568-6.6377,29.243l1.4851-1.9313c.7751-.3648-.9198.3253-1.083.3839-.5283.19-1.0598.3708-1.5941.5433-1.1278.3642-2.2679.6903-3.4187.9738-1.9604.483-3.9507.8652-5.96,1.0707-4.1391.4233-8.355.3434-12.4614-.3418l2.2571,3.9753c1.2813-4.0603,2.3579-8.1809,3.6225-12.2439,1.1331-3.6408,2.7742-7.1029,3.8524-10.7626,1.1588-3.9332,1.6431-8.2011.4518-12.189-1.0945-3.6638-3.4584-6.5665-6.2597-9.0854-1.2717-1.1436-2.5974-2.2263-3.852-3.389-1.033-.9574-2.4112-2.4313-3.0123-3.2404-1.9221-2.5873-3.0747-4.9859-3.9311-7.8316-1.7812-5.919-1.7187-12.6965-.8476-18.8057,1.1477-8.0485,3.4694-15.895,6.049-23.5865l-2.2571,2.2571c7.9559-2.1706,16.0307-1.4116,23.7922,1.1906-.7524-1.3251-1.5048-2.6502-2.2571-3.9753-3.0668,8.8828-5.5497,17.9643-7.3251,27.1941-.8658,4.5012-1.7542,9.3269.0827,13.7113,1.4138,3.3746,4.1897,5.3572,7.5148,6.6324,1.4742.5654,3.0086.9523,4.5188,1.4062.8031.2414,1.6.5012,2.3805.8086.3485.1373-.0519-.02-.1013-.0429.2185.1011.436.2031.6501.3134.3826.1971.7502.4164,1.1106.6513,1.4627.9532,3.5709.295,4.4215-1.1594.9193-1.5717.3069-3.4661-1.1594-4.4215Z" style="fill:#184968; stroke-width:0px;"/><path d="M332.3973,349.5925c-.5048-32.6008-1.0097-65.2017-1.5145-97.8025-.3486-22.5111-3.5408-46.9879,3.8786-68.7019,3.5859-10.4947,10.5516-19.7062,21.4163-23.2251,11.5036-3.7259,24.2171-2.116,35.8551.0993,31.0838,5.9166,61.9637,13.2185,92.9033,19.8499,63.1606,13.5375,126.2825,27.2735,189.4997,40.5446,62.3896,13.0973,124.9278,25.65,186.7043,41.4613,28.0212,7.1719,58.3941,13.6326,81.4392,32.2459,18.4628,14.9122,26.5823,36.5565,28.5158,59.6761,1.9986,23.8981-.4139,48.0953-.5308,72.0368-.1584,32.4244-.3169,64.8488-.4753,97.2731-.3169,64.8488-.6337,129.6975-.9506,194.5463-.0743,15.215.1733,30.4717-.3001,45.68-.3429,11.0156-1.4017,22.4789-5.7133,32.7419-4.5012,10.7144-13.0987,18.5381-24.835,20.2532-14.4573,2.1128-29.7276-3.1208-43.6312-6.4296-61.3602-14.6028-122.3333-30.8325-182.8342-48.6637-60.2973-17.7712-120.1257-37.1332-179.4014-58.0608-14.4185-5.0905-28.8031-10.2762-43.1559-15.5491-3.9102-1.4365-5.5966,4.8077-1.7182,6.2325,60.6012,22.2634,121.7965,42.9026,183.5122,61.8597,61.7147,18.9568,123.943,36.2414,186.5941,51.8266,15.6628,3.8963,31.352,7.6864,47.0662,11.3698,13.3717,3.1344,28.1626,6.7726,41.6273,2.0912,23.0641-8.0189,28.0212-34.3951,28.8884-55.8596.6207-15.3632.283-30.8036.3581-46.1778.0814-16.6504.1627-33.3007.2441-49.9511.1627-33.3007.3254-66.6014.4881-99.9021.3029-61.9975.0352-124.0171,1.7319-185.99.6258-22.8594.0605-46.789-10.1904-67.743-11.8482-24.2189-35.849-38.3133-60.4104-47.077-14.5472-5.1906-29.6524-8.8355-44.6004-12.6619-15.8567-4.059-31.768-7.903-47.7133-11.5978-31.886-7.3884-63.9079-14.172-95.9448-20.8699-64.7351-13.5339-129.3915-27.4288-194.0574-41.2889-32.5014-6.9662-65.0027-13.9323-97.5041-20.8985-14.4145-3.0895-28.8504-6.8258-43.4803-8.7507-11.7121-1.541-24.2151-1.6434-35.0786,3.6146-21.6276,10.4678-25.0228,38.3603-25.3142,59.6187-.1632,11.9026.4595,23.8195.6438,35.7204.2575,16.6286.515,33.2572.7725,49.8858.2507,16.191.5015,32.382.7522,48.5731.0643,4.1551,6.5279,4.1675,6.4633,0h0Z" style="fill:#184968; stroke-width:0px;"/><path d="M681.1596,572.4003c13.6728.9014,27.3342,1.952,41.0025,2.9162,4.6845.3304,9.3699.6475,14.0558.9564,2.1479.1416,3.6091-2.174,3.1162-4.0908-5.0726-19.7271-3.4592-42.3491,8.5077-59.3795,2.653-3.7756,6.2679-7.6588,9.6938-10.2088,3.4798-2.5901,7.3699-4.6568,11.1751-6.015,8.2114-2.931,17.1028-3.6407,25.3351-1.8673,9.2485,1.9923,17.3699,6.9392,22.24,14.9439,1.7316,2.8461,5.8108,1.5047,6.0221-1.6311,1.5018-22.2863,15.5555-43.0507,35.6225-52.8062,17.9634-8.7328,40.0302-8.3752,58.2782-.6896,10.3732,4.369,19.8097,11.2623,26.4876,20.2024,1.4916,1.9968,4.1129,2.1353,5.5809,0,5.3878-7.8366,14.6482-12.6756,24.1265-12.8187,4.1552-.0627,4.1675-6.5263,0-6.4633-11.8638.1791-23.0028,6.268-29.7074,16.0199h5.5809c-13.4833-18.0507-35.306-28.1359-57.598-29.1049-11.0279-.4794-22.2053,1.3571-32.3887,5.6457-11.179,4.7078-20.7363,12.357-28.0912,21.9747-8.3766,10.9537-13.4276,24.2819-14.3547,38.0401,2.0074-.5437,4.0148-1.0874,6.0221-1.6311-10.4269-17.1384-32.5658-22.199-51.0564-17.2376-9.8172,2.6341-18.5339,8.1327-25.0921,15.8996-7.2931,8.6373-11.9469,19.2265-14.0447,30.2997-2.4169,12.7575-1.8013,25.9859,1.4281,38.5453,1.0387-1.3636,2.0775-2.7272,3.1162-4.0908-13.6728-.9014-27.3342-1.952-41.0025-2.9162-4.6845-.3304-9.3699-.6475-14.0558-.9564-1.7435-.1149-3.2317,1.5676-3.2317,3.2317,0,1.8449,1.4831,3.1164,3.2317,3.2317h0Z" style="fill:#184968; stroke-width:0px;"/><path d="M634.9365,640.3477c10.7442,9.2557,21.4884,18.5113,32.2326,27.767l.6541-5.0756c-9.6634,7.3458-16.8817,17.4218-20.6275,28.9877-3.9898,12.3195-3.2911,25.5219.9684,37.6728,2.4407,6.9624,5.8434,13.5539,9.8905,19.7129.9574,1.457,2.8591,2.0732,4.4215,1.1594,1.4482-.8471,2.122-2.9566,1.1594-4.4215-6.5391-9.9514-11.6953-21.3283-12.5515-33.3315-.7867-11.0292,2.1181-21.7809,8.0614-31.115,3.1425-4.9354,7.3185-9.5708,11.9399-13.0838,1.5179-1.1539,2.3972-3.5739.6541-5.0756-10.7442-9.2557-21.4884-18.5113-32.2326-27.767-1.3216-1.1385-3.2716-1.2987-4.5703,0-1.1649,1.1649-1.3281,3.4262,0,4.5703h0Z" style="fill:#184968; stroke-width:0px;"/><path d="M643.843,540.6125c7.2823-11.6823,18.0233-20.9234,30.6419-26.6433,3.3209-1.5053,7.1421-2.8108,10.8632-3.7754,2.0837-.5401,2.8978-2.9426,1.9313-4.7473-2.3908-4.4647-4.0285-8.9866-5.0151-14.2221-.1015-.5385-.1943-1.0787-.2783-1.6201-.0037-.0236-.1557-1.0903-.069-.4384-.0431-.324-.0806-.6488-.1163-.9736-.1303-1.1867-.2192-2.378-.2673-3.5708-.1001-2.4813-.0229-4.9693.2214-7.4405.2001-2.0239.5856-4.3173,1.1791-6.7988.5553-2.322,1.2514-4.6101,2.0744-6.8511.8513-2.3183,1.6013-4.0286,2.8322-6.4368,1.1545-2.2587,2.4363-4.4522,3.8318-6.5704,5.2305-7.9395,12.5796-15.1499,20.6536-20.2674,4.4052-2.7921,8.778-4.9285,13.3707-6.51,5.1853-1.7855,9.9859-2.7608,15.3142-2.8149,12.1052-.1228,24.137,4.4865,32.1781,13.8395,1.0376,1.2069,3.0709,1.1865,4.2433.2527,1.3345-1.063,1.5275-2.664.8323-4.1689-.1379-.2986-.3456-.807-.5535-1.4627-.2385-.7523-.4002-1.5142-.5612-2.2856-.1181-.5656-.0182.1115-.0688-.4629-.0292-.332-.059-.6635-.0754-.9965-.0355-.7218-.029-1.4455.0152-2.1667.0205-.3342.0506-.6674.086-1.0003.0407-.3828.0031-.046-.0075.0267.0244-.1665.0527-.3326.0816-.4984.1357-.7791.3134-1.5503.529-2.3112.4056-1.4322.8278-2.5037,1.3488-3.5628,2.5959-5.2771,6.5756-9.3262,11.7177-12.0405,11.5014-6.0713,25.1685-8.0724,38.1845-6.4381,6.8483.8599,14.0533,3.0863,20.1744,6.5068,3.6349,2.0312,6.8976-3.5494,3.2622-5.5809-13.0245-7.2781-28.4469-9.1774-43.0792-7.0721-13.6581,1.9651-28.4737,7.6672-35.3604,20.4316-3.7371,6.9265-4.6203,14.9318-1.2742,22.1758l5.0756-3.9162c-8.0053-9.3113-19.8354-14.4669-31.9264-15.5435-11.5235-1.0261-22.9716,2.2811-33.016,7.8006-18.6258,10.235-33.479,29.1319-36.9467,50.3356-2.0215,12.3608-.0974,24.8491,5.8285,35.9152.6438-1.5824,1.2876-3.1649,1.9313-4.7473-14.4157,3.7368-27.7014,11.8726-37.5968,23.0035-2.8739,3.2328-5.483,6.7149-7.7711,10.3854-2.2067,3.5399,3.3828,6.7884,5.5809,3.2622h0Z" style="fill:#184968; stroke-width:0px;"/><path d="M653.149,615.8443c16.9131,6.3147,33.6989,12.9764,50.3225,20.0185,16.7337,7.0888,33.3146,14.5384,49.7267,22.3428,9.2545,4.4008,18.4545,8.9155,27.6,13.5385,1.557.787,3.5031.4109,4.4215-1.1594.841-1.4379.4042-3.6312-1.1594-4.4215-16.362-8.2708-32.9006-16.1908-49.6058-23.7444-16.7403-7.5695-33.6457-14.7768-50.6956-21.6202-9.5844-3.8469-19.2165-7.5743-28.8917-11.1867-1.6354-.6106-3.5421.6804-3.9753,2.2571-.4973,1.81.6158,3.3625,2.2571,3.9753h0Z" style="fill:#ec6955; stroke-width:0px;"/><path d="M748.1991,610.032c6.9053,2.0529,13.8106,4.1059,20.7159,6.1588,1.62.4816,3.5932-.5792,3.9753-2.2571.3956-1.7369-.5223-3.4596-2.2571-3.9753-6.9053-2.0529-13.8106-4.1059-20.7159-6.1588-1.62-.4816-3.5932.5792-3.9753,2.2571-.3956,1.7369.5223,3.4596,2.2571,3.9753h0Z" style="fill:#ec6955; stroke-width:0px;"/><path d="M842.7208,773.3209c-6.8829-7.4183-11.5671-16.6193-13.9639-26.5327-2.3581-9.7535-2.4043-20.2555.0255-30.0029,2.4555-9.8507,7.3514-18.6839,14.4031-25.8821,6.9351-7.0791,15.667-12.4218,24.9443-15.5146,10.753-3.5848,22.1463-4.3289,32.9782-1.7124,2.4791.5988,4.4961-1.5483,3.9753-3.9753-.1189-.554-.2296-1.1094-.3254-1.6679-.0477-.2782-.0917-.557-.1326-.8362-.0924-.6306.0738.7613-.0384-.3134-.1165-1.1169-.2045-2.2333-.2318-3.3564-.0272-1.1178-.0055-2.237.0646-3.3528.035-.5576.0815-1.1144.1397-1.67.0233-.2223.0492-.4442.0755-.6662.0877-.7397-.0475.2023.0685-.4693.3919-2.2693.8923-4.4992,1.6076-6.6908.3314-1.0154.6998-2.0184,1.1022-3.0078.4096-1.0072-.1213.2656.1347-.3171.1133-.2579.228-.5153.3458-.7712.2594-.5636.53-1.1219.8116-1.6747,4.0573-7.9663,10.1233-14.4118,17.9263-18.6199,2.3231-1.2528,3.8245-1.8918,6.3214-2.6713,1.1766-.3673,2.3715-.6771,3.5785-.9271.6618-.1371,1.3269-.2517,1.9944-.3565.2781-.0437.7733-.0967,1.5013-.1615,1.7385-.1548,3.2317-1.3745,3.2317-3.2317,0-1.6281-1.4831-3.3873-3.2317-3.2317-20.3126,1.8083-37.476,18.6334-41.2971,38.4558-1.1052,5.7333-1.1054,11.5414.1207,17.2559,1.3251-1.3251,2.6502-2.6502,3.9753-3.9753-21.5636-5.2089-45.0074,1.4311-61.3922,16.1877-8.265,7.4437-14.4196,17.0003-17.7956,27.5957-3.4222,10.7406-3.9277,22.2939-1.9392,33.3594,2.2217,12.3629,7.8973,24.0854,16.4513,33.3046,2.8353,3.0558,7.3977-1.5229,4.5703-4.5703h0Z" style="fill:#184968; stroke-width:0px;"/><path d="M332.1179,216.8008c41.4414,8.6043,82.8773,17.2352,124.2946,25.9552,42.0425,8.8515,84.0659,17.794,126.0563,26.8894,42.2118,9.1434,84.3904,18.4409,126.5194,27.959,41.9505,9.4779,83.8521,19.174,125.6838,29.1639,41.26,9.8533,82.4523,19.9917,123.5495,30.504,5.0295,1.2865,10.0575,2.5791,15.0842,3.8766,4.03,1.0402,5.7491-5.192,1.7182-6.2325-40.9767-10.577-82.0501-20.7768-123.1949-30.6793-41.7645-10.0517-83.6017-19.8003-125.49-29.3225-42.1158-9.5739-84.2836-18.9184-126.4863-28.1009-42.0312-9.1452-84.0973-18.1292-126.1841-27.0145-41.5118-8.7639-83.0438-17.4313-124.5832-26.0635-5.083-1.0563-10.1661-2.112-15.2492-3.1674-4.0591-.8428-5.7947,5.3861-1.7182,6.2325h0Z" style="fill:#184968; stroke-width:0px;"/><path d="M690.0822,659.7256c.3846.1917.7631.3924,1.1291.6181.1761.1086.9853.6845.63.4044.653.5148,1.2201,1.1172,1.7676,1.7396.4157.4725.1527.1933.0687.0787.1226.1672.2413.3379.3563.5104.2315.3471.448.7046.6502,1.0696.2044.369.3885.7473.5683,1.1287.0043.0092.205.4889.0885.1998-.1243-.3087.1598.4448.1833.5113.5944,1.6837.9141,3.3197,1.0196,4.604.1464,1.7832.1112,3.5901-.1148,5.3653.0558-.4386-.0997.5769-.1392.7884-.0808.4326-.1723.8634-.275,1.2913-.2541,1.0597-.5712,2.1052-.9178,3.138-.7223,2.1525-1.6058,4.2383-2.542,6.305-1.9752,4.3602-4.1242,8.6759-5.5714,13.2505-2.2587,7.1397-2.3311,15.8588,1.9494,22.3071,2.2221,3.3474,5.3809,5.6812,9.2234,6.8524,3.5015,1.0673,7.2078,1.1957,10.6817,2.379.5114.1742-.3665-.1791.1212.0395.2418.1084.4797.2263.7122.3534.1847.1009.3675.2077.5454.3204-.0054-.0034.6586.479.444.3014.528.437,1.0239,1.0773,1.4629,1.9504.9302,1.8497,1.34,4.4061,2.2259,6.4907,1.8622,4.3822,7.6469,8.4791,12.2368,5.1941,1.4173-1.0144,2.0982-2.8165,1.1594-4.4215-.8192-1.4005-2.9948-2.1805-4.4215-1.1594-.1676.12-.3399.251-.5273.3419.4155-.2014-.0024.0584-.0693-.028l.1376-.0246c.2355-.0332.1826-.0426-.1587-.0282.0134.0188.5326.0806.1131.0039-.5542-.1013-.9747-.357-1.5093-.8777-.4957-.4827-.6767-.6932-1.0569-1.5176-.317-.6876-.641-1.8899-.9006-2.776-1.2223-4.1723-3.121-7.9078-7.2768-9.7702-3.4207-1.533-7.101-1.7629-10.7081-2.6061-.8348-.1951-1.6514-.4359-2.4591-.7221-.5261-.1864.3452.166-.163-.0577-.1502-.0661-.2986-.1377-.4453-.2112-.4285-.215-.8443-.4551-1.2448-.7185-.1754-.1154-.3486-.2335-.5171-.3588-.4216-.3136.3067.2752-.08-.0763-.2683-.2438-.5401-.4814-.7949-.74-.2897-.294-.566-.6026-.8269-.9225.3245.398-.3185-.4628-.4093-.6027-1.6963-2.6151-2.404-5.7022-2.4914-8.7371-.1099-3.8167.6325-6.8744,2.0603-10.7246,3.0589-8.2488,8.024-15.8036,8.9518-24.7261.8369-8.0482-1.889-17.4661-9.604-21.3112-1.5614-.7782-3.4996-.4169-4.4215,1.1594-.837,1.431-.4089,3.6399,1.1594,4.4215h0Z" style="fill:#ec6955; stroke-width:0px;"/><path d="M732.6244,687.9729c-2.9811,8.7632-.5386,18.912,5.9079,25.5006,1.2207,1.2476,3.3456,1.2247,4.5703,0,1.2492-1.2492,1.2244-3.3189,0-4.5703-4.9259-5.0344-6.522-12.5207-4.2457-19.2121.5621-1.6522-.6454-3.5325-2.2571-3.9753-1.7699-.4863-3.4112.5988-3.9753,2.2571h0Z" style="fill:#ec6955; stroke-width:0px;"/><path d="M833.8895,646.587c6.0337-4.9524,13.9873-7.8404,21.6821-8.1949,4.1861-.1929,7.7593.304,11.7643,1.3153,4.3436,1.0968,9.462,1.5606,12.3598-2.6031,1.3528-1.9437,1.5592-4.4021,1.5465-6.7005-.0052-.9467-.0276-1.8905.0133-2.8369.0188-.4356.0459-.8708.0827-1.3053.021-.2482.0455-.4959.0714-.7437.0453-.433.0139-.1766.0511-.4372.5528-3.872,1.7544-7.401,3.545-10.6761,3.642-6.6613,9.4832-11.9355,16.7434-14.3374,8.6136-2.8497,18.137-1.9389,25.9593,2.7483,3.5768,2.1432,6.8303-3.4428,3.2622-5.5809-7.8775-4.7203-17.3111-6.2056-26.3089-4.5756-8.5428,1.5475-16.3173,6.315-21.6608,13.1396-5.328,6.8048-8.3317,15.1615-8.2321,23.8324.0089.7722.0312,2.1963-.0325,2.6078-.0484.3132-.2057.899-.2525,1.0303.009-.0254-.4569.5782-.2109.3792-.1478.1196-.3849.2519-.5674.3303.4326-.1858-.0835-.0047-.1523.0098-.0714.0151-.6151.1149-.1366.0525-.2252.0294-.4695.0302-.6943.0322-1.0316.0093-1.4484-.0816-2.5898-.3384-4.3204-.972-8.5184-1.8808-12.9806-1.8487-10.1575.0731-19.9984,3.7001-27.8329,10.1307-1.3501,1.1081-1.1489,3.4213,0,4.5703,1.3353,1.3353,3.2169,1.1109,4.5703,0h0Z" style="fill:#ec6955; stroke-width:0px;"/><path d="M847.9476,514.8604c5.5508-18.393,21.5954-32.3422,40.9265-35.0475,5.5282-.7737,11.3717-.587,16.8482.5423,1.7078.3522,3.4917-.4969,3.9753-2.2571.4396-1.5999-.5397-3.6212-2.2571-3.9753-11.2866-2.3274-23.0925-1.2309-33.7205,3.2441-9.939,4.1849-18.3729,11.2131-24.494,20.0753-3.3077,4.7889-5.8301,10.1306-7.5109,15.7-1.2044,3.9907,5.0319,5.6963,6.2325,1.7182h0Z" style="fill:#ec6955; stroke-width:0px;"/><path d="M905.7844,513.1303c.4504-.4642.9298-.8928,1.4404-1.2898l-.6541.5053c.9034-.6847,1.8792-1.2501,2.9204-1.6981l-.772.3258c1.0966-.4565,2.2358-.7716,3.4118-.9393l-.8591.1154c.8025-.1044,1.605-.1389,2.4133-.1005,1.6911.0803,3.3073-1.5438,3.2317-3.2317-.0815-1.8196-1.4201-3.1456-3.2317-3.2317-4.6005-.2186-9.2706,1.6752-12.471,4.9743-1.1781,1.2145-1.2995,3.3773,0,4.5703,1.2739,1.1694,3.3127,1.2963,4.5703,0h0Z" style="fill:#ec6955; stroke-width:0px;"/><path d="M710.842,506.3118c-.974-4.1828-.9397-8.8439.0382-13.05,1.0156-4.3684,2.9421-8.5476,5.5366-11.9364,5.8553-7.6478,14.971-11.4778,24.4169-11.1515,5.2363.1809,10.4059,1.7317,14.9431,4.6235,1.3553.8638,3.7295.3971,4.4215-1.1594,2.234-5.0242,5.7369-8.9926,10.2631-11.8012,4.6281-2.8719,9.643-4.2543,15.0577-4.0234,1.7454.0744,3.2317-1.5386,3.2317-3.2317,0-1.8124-1.4809-3.157-3.2317-3.2317-12.8191-.5465-25.6741,7.269-30.9018,19.0259l4.4215-1.1594c-9.5001-6.0547-22.0268-7.2058-32.5225-3.1401-10.5011,4.0678-18.2915,12.9116-21.41,23.7062-1.7126,5.9282-1.8962,12.2387-.497,18.2474.3959,1.7003,2.3409,2.7063,3.9753,2.2571,1.7423-.4788,2.6543-2.2699,2.2571-3.9753h0Z" style="fill:#ec6955; stroke-width:0px;"/><path d="M793.3504,551.1033c.6796-1.5439,1.5181-3.0098,2.5162-4.3703.14-.1908.3801-.7334.0526-.0759.08-.1605.2495-.3087.3633-.4448.2703-.3232.5491-.6391.8361-.9475.5741-.617,1.1817-1.2029,1.8177-1.7559.2774-.2412.5689-.5446.8853-.7328-.693.4121-.0859.07.0788-.0498.1859-.1351.3737-.2677.5633-.3976.695-.476,1.4158-.9147,2.1577-1.3135.3371-.1812.6787-.3543,1.0245-.5184.1276-.0606.5331-.1839.6265-.2864-.1874.2055-.5171.2095-.0304.016.8193-.3257,1.6563-.5987,2.5069-.8295,1.6311-.4426,2.7932-2.3188,2.2571-3.9753-.5409-1.6715-2.2272-2.7315-3.9753-2.2571-7.5035,2.0361-14.117,7.5331-17.2613,14.6767-.6792,1.5432-.5034,3.543,1.1594,4.4215,1.4016.7405,3.6944.4926,4.4215-1.1594h0Z" style="fill:#ec6955; stroke-width:0px;"/><path d="M907.7665,748.6319c-.2347-.2574-.4737-.5149-.6854-.792.2074.2714-.2404-.3742-.2979-.4635-.1846-.2865-.3586-.5805-.5213-.88-.0811-.1493-.1585-.3006-.2341-.4527-.0333-.0671-.3221-.7097-.1583-.312-.258-.6268-.4578-1.2833-.6212-1.9405-.0826-.3321-.1453-.6673-.2153-1.002.0012.0058-.0923-.5484-.0481-.2487.0356.2413-.038-.3658-.0434-.4256-.2807-3.1035.1361-5.3859,1.2294-8.3364.9159-2.4717,2.6871-4.9466,4.723-6.9812,2.3265-2.3249,4.912-4.1144,7.7945-5.7573,3.2468-1.8505,6.8276-3.4556,10.1638-4.8559,1.3388-.562,2.3726-1.5612,2.3726-3.1162,0-1.5003-1.0249-2.6214-2.3726-3.1162-.3575-.1346-.3748-.1382-.0519-.0107-.1752-.0829-.3472-.1721-.516-.2674-.2497-.141-.4898-.2968-.7243-.4617.5588.3929-.3212-.3117-.4208-.4124-.1982-.2003-.3885-.4117-.5657-.6307.4365.5394-.2388-.3998-.3059-.5132-.1475-.2492-.2712-.5064-.408-.7612-.1557-.341-.1635-.3504-.0232-.0282-.0713-.1825-.1379-.3666-.2-.5524-.094-.2811-.1774-.5659-.251-.853-.0994-.3878-.1776-.7798-.2434-1.1745.0963.5774-.011-.1654-.024-.3461-.0514-.7134-.0489-1.4311.0054-2.1443.0156-.2048.0355-.4091.0597-.613-.0403.2992-.0416.3316-.0038.0971.0651-.3536.1343-.7051.222-1.0539.0873-.3473.1883-.6907.3022-1.0302.0411-.1224.4351-1.0677.1762-.5052,2.8399-6.169,9.9088-9.1786,15.9535-11.8982,1.5918-.7162,1.9738-3.0292,1.1594-4.4215-.958-1.6378-2.8237-1.8783-4.4215-1.1594-6.2073,2.7928-12.4047,5.8927-16.586,11.4593-3.6175,4.8159-4.3659,11.4495-1.9455,16.9564,1.3785,3.1363,3.9022,5.385,7.0945,6.5571v-6.2325c-7.266,3.0498-14.6281,6.3223-20.3863,11.8589-5.3298,5.1246-8.8305,12.4513-8.2973,19.9597.3046,4.2893,1.8339,8.2383,4.7459,11.432,1.1764,1.2902,3.3762,1.1941,4.5703,0,1.284-1.284,1.1794-3.2767,0-4.5703h0Z" style="fill:#ec6955; stroke-width:0px;"/><path d="M663.5204,551.7204c11.5253,0,23.0505,0,34.5758,0,4.1589,0,4.1657-6.4633,0-6.4633-11.5253,0-23.0505,0-34.5758,0-4.1589,0-4.1657,6.4633,0,6.4633h0Z" style="fill:#ec6955; stroke-width:0px;"/><path d="M659.7184,594.8195c14.8985,3.1294,29.7971,6.2588,44.6956,9.3882,1.7065.3584,3.4929-.5013,3.9753-2.2571.441-1.6049-.5412-3.6149-2.2571-3.9753-14.8985-3.1294-29.7971-6.2588-44.6956-9.3882-1.7065-.3584-3.4929.5013-3.9753,2.2571-.441,1.6049.5412,3.6149,2.2571,3.9753h0Z" style="fill:#ec6955; stroke-width:0px;"/><path d="M872.2009,289.7657c-17.0088.1428-9.7172,25.1208,3.549,24.3161,14.3415-.8699,10.2888-24.4323-3.549-24.3161Z" style="fill:#62bfa5; stroke-width:0px;"/><path d="M872.2009,286.5341c-3.4102.0556-6.7367.9519-9.3324,3.244-2.2478,1.9849-3.3747,4.8304-3.7224,7.7467-.6593,5.5296,1.8125,11.5078,5.739,15.3665,4.4877,4.4102,11.7649,6.0724,17.3055,2.5112,5.3432-3.4342,6.6475-10.2269,5.191-16.0679-1.7628-7.0696-7.6677-12.7887-15.1807-12.8006-4.1591-.0066-4.1654,6.4568,0,6.4633.3193.0005.6361.0139.9549.0301.156.0079.3098.0306.4652.0431-.0991-.008-.7344-.15-.1769-.017.6201.148,1.222.2885,1.8292.4874.7561.2477-.4723-.2648.2307.0939.224.1143.4496.2239.6689.3474.2489.1401.4923.2903.73.4486.1182.0787.2319.1665.3511.2437.5949.385-.4885-.4743.0201.0185.3843.3724.7945.7093,1.1605,1.1028.1916.206.3616.4507.5628.6456.3043.2946-.337-.505-.1094-.1464.0955.1504.2117.2898.3129.4369.3256.4737.6232.9669.8921,1.4749.1346.2543.2462.5219.3831.7744.0413.0761.1988.4306.0113.0094-.2108-.4733.0433.1093.0814.2141.1969.5406.3801,1.0833.527,1.64.0729.2762.1383.5545.1963.8342.034.1638.2005,1.1301.1219.6195-.0857-.5567.0356.3998.0442.5151.021.2783.0343.5569.0395.8359.0109.5872-.0434,1.1631-.0756,1.7478-.03.5445.1642-.7194-.0329.1398-.0521.227-.0937.4555-.1507.6816-.0644.2552-.1372.5079-.2194.7579-.1213.3687-.4046.897-.0595.2273-.2367.4594-.4682.9047-.738,1.3465-.3997.6546.2156-.1746-.0645.1121-.201.2057-.3791.4313-.5859.6327-.1589.1546-.3596.2863-.5032.4523.5205-.602.1647-.1219-.1396.0739-.2269.146-.4636.271-.6985.4029-.7628.4286.4119-.0871-.2825.133-.5635.1786-1.178.2632-1.73.4546-.4189.1453.605-.0365.1493-.0152-.1639.0077-.3279.0329-.4919.0443-.3221.0225-.6449.0326-.9678.0255-.2762-.006-.5501-.0409-.8255-.0511-.5394-.02.7086.1655-.1465-.0392-.5255-.1258-1.0267-.2897-1.5434-.4437-.4012-.1196.5567.2922-.1484-.0651-.2385-.1209-.4773-.239-.7101-.3709-.2331-.132-.4618-.2721-.6856-.4194-.1352-.0889-.8764-.6403-.4931-.3365.4222.3346-.2962-.2599-.3766-.3314-.1782-.1585-.3524-.3214-.5225-.4886-.4428-.4354-.8385-.9054-1.2391-1.3785.3971.469.1542.2028-.055-.0929-.1603-.2266-.3147-.4571-.4636-.6913-.3168-.4984-.6078-1.013-.872-1.5411-.1243-.2484-.2336-.5031-.3546-.7529.307.6337.0593.1461-.0651-.1878-.1913-.5134-.3587-1.0358-.4995-1.5653-.1391-.523-.2312-1.0511-.3371-1.5809-.088-.4403.0516.6949-.0089-.1263-.0216-.2932-.0445-.5853-.0527-.8793-.0118-.4238-.1554-1.4481.0779-1.8135.0355-.0556-.1828.7438-.0502.3956.0523-.1374.0532-.3106.0835-.4568.0619-.2995.1366-.5967.2257-.8893.0442-.1451.3373-1.0002.1434-.4656-.1917.5289.1392-.2735.2213-.4246.1287-.2369.2813-.4563.4187-.6872.3279-.5508-.4542.4568.0993-.127.1888-.1991.3791-.3916.574-.5848.0829-.0822.2149-.1479.2781-.2433.1813-.2739-.5955.37-.1331.1054.2797-.16.5383-.3548.8229-.5093.3154-.1713.7957-.3483.1447-.106.6584-.245,1.3169-.4517,2.0079-.5857.155-.03.3148-.0452.468-.0813.4216-.0994-.7911.0463-.0017.0101.4384-.0201.873-.0566,1.3126-.0637,4.1548-.0677,4.1676-6.5313,0-6.4633Z" style="fill:#184968; stroke-width:0px;"/><path d="M910.981,298.3835c-17.0088.1428-9.7172,25.1208,3.549,24.3161,14.3415-.8699,10.2888-24.4323-3.549-24.3161Z" style="fill:#62bfa5; stroke-width:0px;"/><path d="M910.981,295.1519c-3.4102.0556-6.7367.9519-9.3324,3.244-2.2478,1.9849-3.3747,4.8304-3.7224,7.7467-.6593,5.5296,1.8125,11.5078,5.739,15.3665,4.4877,4.4102,11.7649,6.0724,17.3055,2.5112,5.3432-3.4342,6.6475-10.2269,5.191-16.0679-1.7628-7.0696-7.6677-12.7887-15.1807-12.8006-4.1591-.0066-4.1654,6.4568,0,6.4633.3193.0005.6361.0139.9549.0301.156.0079.3098.0306.4652.0431-.0991-.008-.7344-.15-.1769-.017.6201.148,1.222.2885,1.8292.4874.7561.2477-.4723-.2648.2307.0939.224.1143.4496.2239.6689.3474.2489.1401.4923.2903.73.4486.1182.0787.2319.1665.3511.2437.5949.385-.4885-.4743.0201.0185.3843.3724.7945.7093,1.1605,1.1028.1916.206.3616.4507.5628.6456.3043.2946-.337-.505-.1094-.1464.0955.1504.2117.2898.3129.4369.3256.4737.6232.9669.8921,1.4749.1346.2543.2462.5219.3831.7744.0413.0761.1988.4306.0113.0094-.2108-.4733.0433.1093.0814.2141.1969.5406.3801,1.0833.527,1.64.0729.2762.1383.5545.1963.8342.034.1638.2005,1.1301.1219.6195-.0857-.5567.0356.3998.0442.5151.021.2783.0343.5569.0395.8359.0109.5872-.0434,1.1631-.0756,1.7478-.03.5445.1642-.7194-.0329.1398-.0521.227-.0937.4555-.1507.6816-.0644.2552-.1372.5079-.2194.7579-.1213.3687-.4046.897-.0595.2273-.2367.4594-.4682.9047-.738,1.3465-.3997.6546.2156-.1746-.0645.1121-.201.2057-.3791.4313-.5859.6327-.1589.1546-.3596.2863-.5032.4523.5205-.602.1647-.1219-.1396.0739-.2269.146-.4636.271-.6985.4029-.7628.4286.4119-.0871-.2825.133-.5635.1786-1.178.2632-1.73.4546-.4189.1453.605-.0365.1493-.0152-.1639.0077-.3279.0329-.4919.0443-.3221.0225-.6449.0326-.9678.0255-.2762-.006-.5501-.0409-.8255-.0511-.5394-.02.7086.1655-.1465-.0392-.5255-.1258-1.0267-.2897-1.5434-.4437-.4012-.1196.5567.2922-.1484-.0651-.2385-.1209-.4773-.239-.7101-.3709-.2331-.132-.4618-.2721-.6856-.4194-.1352-.0889-.8764-.6403-.4931-.3365.4222.3346-.2962-.2599-.3766-.3314-.1782-.1585-.3524-.3214-.5225-.4886-.4428-.4354-.8385-.9054-1.2391-1.3785.3971.469.1542.2028-.055-.0929-.1603-.2266-.3147-.4571-.4636-.6913-.3168-.4984-.6078-1.013-.872-1.5411-.1243-.2484-.2336-.5031-.3546-.7529.307.6337.0593.1461-.0651-.1878-.1913-.5134-.3587-1.0358-.4995-1.5653-.1391-.523-.2312-1.0511-.3371-1.5809-.088-.4403.0516.6949-.0089-.1263-.0216-.2932-.0445-.5853-.0527-.8793-.0118-.4238-.1554-1.4481.0779-1.8135.0355-.0556-.1828.7438-.0502.3956.0523-.1374.0532-.3106.0835-.4568.0619-.2995.1366-.5967.2257-.8893.0442-.1451.3373-1.0002.1434-.4656-.1917.5289.1392-.2735.2213-.4246.1287-.2369.2813-.4563.4187-.6872.3279-.5508-.4542.4568.0993-.127.1888-.1991.3791-.3916.574-.5848.0829-.0822.2149-.1479.2781-.2433.1813-.2739-.5955.37-.1331.1054.2797-.16.5383-.3548.8229-.5093.3154-.1713.7957-.3483.1447-.106.6584-.245,1.3169-.4517,2.0079-.5857.155-.03.3148-.0452.468-.0813.4216-.0994-.7911.0463-.0017.0101.4384-.0201.873-.0566,1.3126-.0637,4.1548-.0677,4.1676-6.5313,0-6.4633Z" style="fill:#184968; stroke-width:0px;"/><path d="M829.112,281.1479c-17.0088.1428-9.7172,25.1208,3.549,24.3161,14.3415-.8699,10.2888-24.4323-3.549-24.3161Z" style="fill:#62bfa5; stroke-width:0px;"/><path d="M829.112,277.9163c-3.4102.0556-6.7367.9519-9.3324,3.244-2.2478,1.9849-3.3747,4.8304-3.7224,7.7467-.6593,5.5296,1.8125,11.5078,5.739,15.3665,4.4877,4.4102,11.7649,6.0724,17.3055,2.5112,5.3432-3.4342,6.6475-10.2269,5.191-16.0679-1.7628-7.0696-7.6677-12.7887-15.1807-12.8006-4.1591-.0066-4.1654,6.4568,0,6.4633.3193.0005.6361.0139.9549.0301.156.0079.3098.0306.4652.0431-.0991-.008-.7344-.15-.1769-.017.6201.148,1.222.2885,1.8292.4874.7561.2477-.4723-.2648.2307.0939.224.1143.4496.2239.6689.3474.2489.1401.4923.2903.73.4486.1182.0787.2319.1665.3511.2437.5949.385-.4885-.4743.0201.0185.3843.3724.7945.7093,1.1605,1.1028.1916.206.3616.4507.5628.6456.3043.2946-.337-.505-.1094-.1464.0955.1504.2117.2898.3129.4369.3256.4737.6232.9669.8921,1.4749.1346.2543.2462.5219.3831.7744.0413.0761.1988.4306.0113.0094-.2108-.4733.0433.1093.0814.2141.1969.5406.3801,1.0833.527,1.64.0729.2762.1383.5545.1963.8342.034.1638.2005,1.1301.1219.6195-.0857-.5567.0356.3998.0442.5151.021.2783.0343.5569.0395.8359.0109.5872-.0434,1.1631-.0756,1.7478-.03.5445.1642-.7194-.0329.1398-.0521.227-.0937.4555-.1507.6816-.0644.2552-.1372.5079-.2194.7579-.1213.3687-.4046.897-.0595.2273-.2367.4594-.4682.9047-.738,1.3465-.3997.6546.2156-.1746-.0645.1121-.201.2057-.3791.4313-.5859.6327-.1589.1546-.3596.2863-.5032.4523.5205-.602.1647-.1219-.1396.0739-.2269.146-.4636.271-.6985.4029-.7628.4286.4119-.0871-.2825.133-.5635.1786-1.178.2632-1.73.4546-.4189.1453.605-.0365.1493-.0152-.1639.0077-.3279.0329-.4919.0443-.3221.0225-.6449.0326-.9678.0255-.2762-.006-.5501-.0409-.8255-.0511-.5394-.02.7086.1655-.1465-.0392-.5255-.1258-1.0267-.2897-1.5434-.4437-.4012-.1196.5567.2922-.1484-.0651-.2385-.1209-.4773-.239-.7101-.3709-.2331-.132-.4618-.2721-.6856-.4194-.1352-.0889-.8764-.6403-.4931-.3365.4222.3346-.2962-.2599-.3766-.3314-.1782-.1585-.3524-.3214-.5225-.4886-.4428-.4354-.8385-.9054-1.2391-1.3785.3971.469.1542.2028-.055-.0929-.1603-.2266-.3147-.4571-.4636-.6913-.3168-.4984-.6078-1.013-.872-1.5411-.1243-.2484-.2336-.5031-.3546-.7529.307.6337.0593.1461-.0651-.1878-.1913-.5134-.3587-1.0358-.4995-1.5653-.1391-.523-.2312-1.0511-.3371-1.5809-.088-.4403.0516.6949-.0089-.1263-.0216-.2932-.0445-.5853-.0527-.8793-.0118-.4238-.1554-1.4481.0779-1.8135.0355-.0556-.1828.7438-.0502.3956.0523-.1374.0532-.3106.0835-.4568.0619-.2995.1366-.5967.2257-.8893.0442-.1451.3373-1.0002.1434-.4656-.1917.5289.1392-.2735.2213-.4246.1287-.2369.2813-.4563.4187-.6872.3279-.5508-.4542.4568.0993-.127.1888-.1991.3791-.3916.574-.5848.0829-.0822.2149-.1479.2781-.2433.1813-.2739-.5955.37-.1331.1054.2797-.16.5383-.3548.8229-.5093.3154-.1713.7957-.3483.1447-.106.6584-.245,1.3169-.4517,2.0079-.5857.155-.03.3148-.0452.468-.0813.4216-.0994-.7911.0463-.0017.0101.4384-.0201.873-.0566,1.3126-.0637,4.1548-.0677,4.1676-6.5313,0-6.4633Z" style="fill:#184968; stroke-width:0px;"/><path d="M365.6696,177.313c7.4478,1.0156,14.8957,2.0312,22.3435,3.0468,1.7271.2355,3.4696-.4165,3.9753-2.2571.4142-1.5073-.5165-3.738-2.2571-3.9753-7.4478-1.0156-14.8957-2.0312-22.3435-3.0468-1.7271-.2355-3.4696.4165-3.9753,2.2571-.4142,1.5073.5165,3.738,2.2571,3.9753h0Z" style="fill:#ec6955; stroke-width:0px;"/><path d="M362.4663,197.7407c6.3794-.0523,12.9102,1.161,18.6812,3.6212,1.5505.661,3.5366.5155,4.4215-1.1594.7326-1.3866.5011-3.7137-1.1594-4.4215-6.9639-2.9688-14.3551-4.5658-21.9434-4.5037-1.6899.0138-3.3103,1.4765-3.2317,3.2317.0779,1.7391,1.4203,3.2465,3.2317,3.2317h0Z" style="fill:#ec6955; stroke-width:0px;"/><path d="M551.425,756.8899c10.4404,16.0755,15.3686,35.2303,14.2565,54.3008-.316,5.4189-1.1264,10.5958-2.4532,15.8956-.6473,2.5856,2.3081,5.2759,4.7473,3.6496,12.2358-8.1581,26.7161-12.2293,41.2597-13.0469,15.8772-.8926,31.624,1.9721,46.7595,6.6151,8.9089,2.7329,17.6182,6.0714,26.2099,9.6699,2.5467,1.0666,5.2316-2.5635,3.6496-4.7473-8.2831-11.434-8.5398-27.2562-.6011-38.8995.9837-1.4427.2729-3.5838-1.1594-4.4215-1.5972-.9342-3.4356-.2867-4.4215,1.1594-9.0812,13.3191-8.8653,32.3565.6011,45.4238,1.2165-1.5824,2.433-3.1649,3.6496-4.7473-15.563-6.5183-31.6138-12.2224-48.3227-14.9308-15.645-2.5359-31.7709-2.4851-47.1405,1.6964-8.3951,2.284-16.5007,5.817-23.7462,10.6479,1.5824,1.2165,3.1649,2.433,4.7473,3.6496,4.9345-19.7106,3.3665-41.0016-4.4172-59.7747-2.226-5.3688-4.8705-10.5257-8.0376-15.4022-.9496-1.4622-2.8649-2.0699-4.4215-1.1594-1.4546.8508-2.1141,2.9516-1.1594,4.4215h0Z" style="fill:#ec6955; stroke-width:0px;"/><path d="M87.8698,592.4085c11.8528-6.425,23.7055-12.8499,35.5583-19.2749,3.658-1.9829.3989-7.5654-3.2622-5.5809-11.8528,6.425-23.7055,12.8499-35.5583,19.2749-3.658,1.9829-.3989,7.5654,3.2622,5.5809h0Z" style="fill:#184968; stroke-width:0px;"/><path d="M132.176,624.3674c4.401-5.4166,8.802-10.8332,13.203-16.2498,1.0642-1.3098,1.3765-3.3066,0-4.5703-1.1806-1.0837-3.4319-1.4011-4.5703,0-4.401,5.4166-8.802,10.8332-13.203,16.2498-1.0642,1.3098-1.3765,3.3066,0,4.5703,1.1806,1.0837,3.4319,1.4011,4.5703,0h0Z" style="fill:#184968; stroke-width:0px;"/><path d="M177.6941,645.2848c1.0156-3.7239,2.0312-7.4478,3.0468-11.1717.4444-1.6294-.5526-3.5871-2.2571-3.9753s-3.4993.5118-3.9753,2.2571c-1.0156,3.7239-2.0312,7.4478-3.0468,11.1717-.4444,1.6294.5526,3.5871,2.2571,3.9753s3.4993-.5118,3.9753-2.2571h0Z" style="fill:#184968; stroke-width:0px;"/><path d="M44.3304,358.1528c-3.9945,27.3619-.3094,55.4083,10.4939,80.8569,2.9549,6.9607,6.4463,13.6802,10.4488,20.096,2.1969,3.5215,7.791.2805,5.5809-3.2622-13.846-22.1943-21.3679-48.1068-21.6845-74.2318-.088-7.2584.3497-14.5916,1.3934-21.7406.2518-1.7249-.4277-3.4727-2.2571-3.9753-1.5202-.4177-3.7216.5193-3.9753,2.2571h0Z" style="fill:#184968; stroke-width:0px;"/><path d="M24.897,336.7631c-4.2735,15.4823-4.1385,32.0751.4173,47.4789,1.177,3.9797,7.4166,2.2854,6.2325-1.7182-4.2398-14.3353-4.3955-29.6302-.4173-44.0425,1.1084-4.0154-5.1254-5.7289-6.2325-1.7182h0Z" style="fill:#184968; stroke-width:0px;"/><path d="M384.8548,766.3381c10.019,13.9229,22.9837,25.5446,37.8196,34.1476,14.916,8.6494,31.5078,14.177,48.6158,16.2576,9.408,1.1441,18.9383,1.1462,28.3418-.042,1.7312-.2187,3.2317-1.3287,3.2317-3.2317,0-1.5764-1.4881-3.452-3.2317-3.2317-16.4124,2.0737-32.5617.5369-48.2647-4.2495-15.3499-4.6787-30.0755-12.5687-42.304-22.9113-6.9792-5.9029-13.416-12.7591-18.6276-20.0013-1.018-1.4147-2.8138-2.0998-4.4215-1.1594-1.3974.8174-2.1843,2.9973-1.1594,4.4215h0Z" style="fill:#184968; stroke-width:0px;"/><path d="M459.9651,848.7488h29.4528c4.1589,0,4.1657-6.4633,0-6.4633h-29.4528c-4.1589,0-4.1657,6.4633,0,6.4633h0Z" style="fill:#184968; stroke-width:0px;"/><path d="M667.4688,368.1129c18.9581,8.125,37.9161,16.2501,56.8742,24.3751,1.6029.687,3.4642.4774,4.4215-1.1594.7959-1.3608.4536-3.7302-1.1594-4.4215-18.9581-8.125-37.9161-16.2501-56.8742-24.3751-1.6029-.687-3.4642-.4774-4.4215,1.1594-.7959,1.3608-.4536,3.7302,1.1594,4.4215h0Z" style="fill:#184968; stroke-width:0px;"/><path d="M681.769,350.6571c1.3542.6771,2.7083,1.3542,4.0625,2.0312.3709.2362.7715.364,1.2015.3835.4296.0962.8591.077,1.2887-.0577.4205-.1.7869-.2928,1.099-.5784.3518-.2279.6293-.5301.8323-.9067.3963-.75.5949-1.6586.3258-2.4902-.2496-.7713-.7355-1.5565-1.4851-1.9313-1.3542-.6771-2.7083-1.3542-4.0625-2.0312-.3709-.2362-.7715-.364-1.2015-.3835-.4296-.0962-.8591-.077-1.2887.0577-.4205.1-.7869.2928-1.099.5784-.3518.2279-.6293.5301-.8323.9067-.3963.75-.5949,1.6586-.3258,2.4902.2496.7713.7355,1.5565,1.4851,1.9313h0Z" style="fill:#184968; stroke-width:0px;"/><path d="M117.934,307.0957c13.5455-.1456,27.1913-.345,40.5192-3.0385,6.3035-1.2739,12.3847-3.1771,18.2208-5.8882,5.4929-2.5517,10.6699-5.7351,15.6373-9.1883,7.3284-5.0945,14.4302-10.6233,21.1951-16.4503,5.8139-5.0079,11.4835-10.2325,16.7089-15.8567,2.7737-2.9854,5.5043-6.1169,7.6925-9.5654,1.6248-2.5605,3.2227-5.7746,2.3968-8.8829l-6.2325,1.7182c3.2883,11.3134,10.17,21.6587,19.3516,29.0482,9.0779,7.306,20.4164,12.0536,32.2178,11.5715,7.0349-.2874,13.8307-2.3795,19.9186-5.8908-1.5824-1.2165-3.1649-2.433-4.7473-3.6496-3.0363,15.2931-1.2129,31.1326,5.0031,45.4113,1.7234,3.9588,3.8113,7.7459,6.2222,11.3269.9736,1.4461,2.8471,2.0803,4.4215,1.1594,1.4348-.8392,2.1386-2.9671,1.1594-4.4215-7.9422-11.7967-12.059-25.8235-11.8192-39.9744.0682-4.0267.4706-7.8809,1.2454-11.7834.5349-2.6939-2.1809-5.1297-4.7473-3.6496-2.6078,1.5041-4.7538,2.4914-7.4983,3.361-1.3164.4171-2.6551.7649-4.0087,1.0379-1.5345.3095-2.0034.3798-3.4837.505-2.6489.2241-5.3017.1519-7.9414-.1465-1.0484-.1185.3339.0547-.2839-.0387-.2715-.041-.5427-.0834-.8134-.1293-.6496-.1102-1.2966-.2361-1.9402-.3771-1.2893-.2824-2.5651-.6256-3.823-1.0251-2.72-.8638-4.382-1.5752-6.8766-2.8923-2.3828-1.2581-4.6573-2.7129-6.8153-4.3256-.4994-.3732-1.7055-1.3542-2.5137-2.0603-1.1144-.9736-2.1901-1.9919-3.2233-3.0513-1.8039-1.8496-3.4974-3.844-4.7998-5.6373-1.8184-2.5038-3.433-5.1565-4.8126-7.9266-.6813-1.368-1.1961-2.528-1.6225-3.6191-.5822-1.4897-1.0906-3.0053-1.5369-4.541-1.159-3.9878-7.3042-2.3154-6.2325,1.7182.1925.7245.0417-.414-.0069-.2092-.0321.1352-.0303.4492-.0095.5957.0687.4844.2116-.7054.0565-.4141-.0465.0873-.0393.235-.0667.3309-.0802.281-.1486.5611-.244.8382-.0337.0979-.0742.1942-.1065.2925-.2214.673.0572-.1866.0765-.1685.0372.0347-.3043.6434-.3365.7073-.3032.6013-.6418,1.1845-.9984,1.7555-.3813.6104-.786,1.2061-1.2042,1.7917-.2243.314-.4551.623-.6849.9329-.0946.1275-.192.253-.2882.3792.5036-.661-.0646.0768-.1715.2109-1.1194,1.4048-2.2963,2.7634-3.5031,4.0935-5.0826,5.6022-10.6492,10.7764-16.3437,15.7482-5.7724,5.0399-11.8157,9.7902-18.0075,14.3021-9.5897,6.9881-19.7483,12.9052-31.3503,15.7662-14.0299,3.4597-28.583,3.5812-42.9494,3.7357-4.1564.0447-4.1672,6.5082,0,6.4633h0Z" style="fill:#ec6955; stroke-width:0px;"/><path d="M569.804,538.7113c-.9092-9.2261-3.4291-18.3409-8.5441-26.1621-2.6135-3.9962-5.8057-7.6426-9.5179-10.6516-3.9033-3.1639-8.2594-5.4344-12.5744-7.9625-18.5969-10.8956-35.1855-24.7586-51.0189-39.2951-15.8747-14.5744-31.0777-29.8729-47.2514-44.1228-16.4786-14.5185-34.1177-27.6114-53.1109-38.6659-37.9537-22.0899-80.3365-36.3226-123.9197-41.6459-47.9464-5.8562-96.2183.5028-142.6282,12.9985-11.775,3.1704-23.4517,6.7069-35.0368,10.5114-7.7474,2.5443-17.4843,5.8446-21.1429,13.8904-2.4467,5.3806-2.1073,11.5781-1.3193,17.2907.9967,7.2252,3.0327,14.283,5.3696,21.1774,4.5626,13.4605,10.398,26.4921,16.6009,39.2677,8.5309,17.5706,18.5429,34.2601,30.4625,49.7532,26.5079,34.4551,60.9183,61.9749,99.6328,81.5952,38.2881,19.4042,80.0248,31.3482,122.3427,37.9328,10.5705,1.6448,21.1917,2.9751,31.8396,4.0045,5.0868.4918,10.4921,1.4332,15.5909,1.0335,5.8488-.4584,11.7018-.8677,17.561-1.1682,23.0386-1.1817,46.5765-.8348,68.9463,5.3948,9.7259,2.7085,19.2082,7.4495,29.5649,6.6696,9.7095-.7311,18.9707-5.6479,27.0593-10.767,17.8991-11.3279,31.2305-28.7092,37.4489-48.9601,3.1741-10.3368,4.5821-21.33,3.6452-32.1187-.3571-4.1123-6.8238-4.1501-6.4633,0,1.821,20.9685-5.2205,42.7934-18.817,58.8479-6.5254,7.705-14.3663,14.1562-23.1756,19.085-7.9053,4.4229-16.2349,8.4104-25.5263,7.3352-4.9858-.577-9.725-2.3401-14.4375-3.9675-5.1448-1.7767-10.4041-3.2133-15.7241-4.3598-11.0042-2.3713-22.2617-3.5476-33.5019-3.9647-11.1485-.4137-22.3122-.0789-33.4441.5887-5.4015.324-11.1067,1.3439-16.4969.9383-5.1702-.3891-10.3353-.8465-15.4931-1.3755-41.3838-4.2444-82.5456-13.1798-121.2072-28.7331-38.5192-15.496-74.3051-38.0463-103.3642-67.8412-14.8658-15.2423-27.9095-32.2043-38.7852-50.5098-7.4265-12.4998-13.7996-25.6711-19.6307-38.9857-5.7651-13.1639-11.43-27.0523-13.585-41.3442-.4181-2.7726-.6287-5.6039-.483-8.4072.0975-1.875.5656-4.3915,1.2539-5.7563,1.5339-3.0413,4.9668-5.3887,8.4143-7.0699,4.6992-2.2916,9.8818-3.6864,14.8476-5.2687,45.0431-14.3519,91.8307-24.5292,139.3348-23.4518,43.0164.9756,85.8314,11.1745,124.836,29.3037,19.3804,9.008,37.8681,19.9451,55.0547,32.6507,16.9379,12.5218,32.3267,26.9613,47.5607,41.4641,15.0526,14.3301,30.0164,28.8204,46.3131,41.7526,8.0324,6.3741,16.3518,12.3952,25.096,17.7595,4.3164,2.648,8.9473,4.8599,13.0846,7.7831,3.6305,2.5652,6.883,5.8268,9.4316,9.4691,4.9628,7.0925,7.6002,15.4889,8.4447,24.0574.4042,4.1014,6.8717,4.1432,6.4633,0Z" style="fill:#184968; stroke-width:0px;"/><path d="M429.9159,402.9542c11.5644-8.3239,24.0183-15.3792,37.0757-21.0798,12.6461-5.521,26.4656-9.873,40.1963-12.8157,13.8471-2.9676,27.5185-4.5285,41.7798-4.8021,14.1825-.272,28.4094.7916,42.115,3.2047,14.0183,2.4682,27.8005,6.3031,41.0476,11.516,6.3848,2.5125,12.7456,5.4278,18.9873,8.6974,3.1012,1.6245,6.1595,3.3311,9.1694,5.1191,3.0096,1.7877,5.9952,3.4997,8.4168,5.922.5477.5479,1.1296,1.191,1.4445,1.637.2433.3447.469.7025.6762,1.07.0783.1389.4638.9458.35.6576.1469.3721.2591.762.3477,1.1519.0375.1652.0792.3347.0997.5031-.058-.4767-.0178.1034-.0202.1645-.0298.749-.0216.9497-.3211,1.8505.1642-.4937-.1566.3135-.2446.4674-.0848.1481-.6159.8843-.2551.4416-.1871.2296-.3919.4471-.6032.6544-.1028.1009-.9322.7746-.4999.4615-1.3233.9582-2.2923,1.3675-3.5132,1.7854-3.0519,1.0445-6.257,1.4726-9.411,2.0872-3.4424.6708-6.8615,1.4615-10.2501,2.3657-13.6852,3.6518-26.9149,9.1622-39.2075,16.1919-12.3019,7.035-23.7484,15.6498-33.9223,25.5147-10.1197,9.8124-19.0296,20.9459-26.3043,33.0229-1.7781,2.9519-3.4532,5.964-5.0319,9.0272-.7993,1.5509-.4026,3.5079,1.1594,4.4215,1.4475.8466,3.6191.3978,4.4215-1.1594,6.5427-12.6954,14.6452-24.1881,24.2813-34.5656,9.682-10.4271,20.4343-19.3568,32.3774-26.9028,12.0949-7.6419,24.7711-13.541,38.3493-17.712,6.7704-2.0798,13.6286-3.4645,20.5632-4.8446,6.6895-1.3313,14.1982-4.4695,14.8435-12.2381.6684-8.0466-7.5396-13.3799-13.4995-16.9678-6.2136-3.7406-12.6363-7.1322-19.2223-10.1689-13.2966-6.1309-27.2104-10.8879-41.4804-14.1673-14.2907-3.2842-28.9336-5.1531-43.5888-5.6062-14.6205-.452-29.2631.5518-43.7009,2.8872-14.3135,2.3153-28.4053,6.0272-41.9771,11.135-13.6422,5.1343-26.7874,11.6048-39.0629,19.4733-3.0035,1.9252-5.9519,3.9345-8.8474,6.0186-1.4145,1.0182-2.0999,2.8136-1.1594,4.4215.8173,1.3973,2.9974,2.1844,4.4215,1.1594h0Z" style="fill:#184968; stroke-width:0px;"/><path d="M336.6281,615.0322c2.214,13.5934,5.8552,26.9363,10.7943,39.7916,4.9723,12.9416,11.1617,25.4047,18.4924,37.1724,7.3362,11.7765,15.784,22.8865,25.1373,33.1335,9.4081,10.3072,19.776,19.6881,30.9008,28.1092,10.9259,8.2705,22.6237,15.5274,34.9205,21.5779,12.4326,6.1173,25.467,11.0601,38.8762,14.5629,6.5,1.698,14.0603,3.8406,20.4741.719,3.5443-1.7251,5.7538-5.2457,6.0556-9.1371.3236-4.173-1.7622-8.3023-3.9429-11.7149-2.0791-3.2535-4.3694-6.3622-6.4082-9.6453-2.0258-3.2621-3.9298-6.5997-5.7094-10.0024-3.5554-6.7982-6.5305-13.6854-9.0461-20.9127-5.0551-14.5229-8.0447-29.5972-8.8665-44.8349-.8326-15.4386.4643-30.7331,4.0742-45.681.8863-3.6701,1.9104-7.3049,3.0602-10.9011.5314-1.6621-.6234-3.5264-2.2571-3.9753-1.7448-.4794-3.4419.5887-3.9753,2.2571-4.6824,14.6454-7.1806,29.9964-7.5566,45.3636-.3744,15.3035,1.3772,30.7036,5.1162,45.5466,3.7338,14.8223,9.5138,29.1921,17.1864,42.4166,1.9279,3.3229,3.979,6.5744,6.1503,9.7437,2.068,3.0186,4.4818,6.0801,5.4423,9.6203.4013,1.4792.4735,2.7863-.1108,3.9777-.1506.307-.3366.6048-.5328.8847.3006-.4288-.2861.2863-.3856.3983-.099.1115-.22.207-.3301.3071.3794-.3449.0481-.0248-.0551.0417-.3382.2182-.6808.41-1.0343.602-.4934.268.1957-.016-.3509.1403-.3496.1-.6906.2177-1.0445.3039-.3601.0877-.7246.1608-1.091.217.0689-.0106.4417-.0493.0553-.0122-.2728.0262-.5455.0503-.8191.0659-.7259.0412-1.4541.0385-2.1802.005-.3964-.0183-.7923-.046-1.1875-.0821-.21-.0192-1.2462-.1513-.8304-.0891-3.2316-.4837-6.4211-1.3755-9.5726-2.2236-3.2968-.8872-6.5703-1.8609-9.8167-2.918-6.3247-2.0596-12.718-4.5033-18.4874-7.0568-12.3087-5.4477-24.0789-12.0991-35.1387-19.7685-10.8995-7.5583-21.0633-16.1215-30.563-25.6986-9.5728-9.6507-18.0123-19.8453-25.5692-30.926-7.5877-11.1258-14.1656-22.9435-19.5622-35.2833-.7205-1.6475-1.1504-2.6665-1.8348-4.3517-.6299-1.551-1.2413-3.1096-1.8335-4.6754-1.1844-3.1318-2.2931-6.2922-3.3234-9.4781-2.0808-6.4341-3.8399-12.9727-5.2581-19.5847-.6918-3.2252-1.2992-6.4676-1.8295-9.7232-.2808-1.724-2.4221-2.684-3.9753-2.2571-1.8322.5035-2.5387,2.2463-2.2571,3.9753h0Z" style="fill:#184968; stroke-width:0px;"/><path d="M539.5375,518.8461c2.6867,20.7424-2.903,41.7628-15.2111,58.6783-3.3,4.5352-7.3779,8.9273-11.7244,12.7285-1.3145,1.1495-1.1761,3.3942,0,4.5703,1.3044,1.3044,3.2525,1.1524,4.5703,0,16.7207-14.6227,27.0457-35.8199,29.1367-57.8507.5727-6.0338.4704-12.1159-.3081-18.1263-.2241-1.7305-1.3248-3.2317-3.2317-3.2317-1.572,0-3.4575,1.4886-3.2317,3.2317h0Z" style="fill:#184968; stroke-width:0px;"/><path d="M502.894,610.5434c4.1589,0,4.1657-6.4633,0-6.4633-4.1589,0-4.1657,6.4633,0,6.4633h0Z" style="fill:#184968; stroke-width:0px;"/><path d="M90.1831,403.4671c5.9746,17.3054,14.7602,33.4199,25.9811,47.8755,1.0712,1.3799,3.4449,1.1254,4.5703,0,1.3621-1.3621,1.074-3.1867,0-4.5703-10.4956-13.5213-18.7355-28.8511-24.3189-45.0234-.5693-1.6491-2.2157-2.7407-3.9753-2.2571-1.6034.4406-2.8293,2.3181-2.2571,3.9753h0Z" style="fill:#184968; stroke-width:0px;"/><path d="M133.0939,464.2607v1.7881c-.0168.4449.076.86.2783,1.2451.1303.4006.3531.7473.6682,1.04.2927.3151.6394.5379,1.04.6682.3851.2023.8002.2951,1.2451.2783l.8591-.1154c.5475-.1535,1.0228-.4306,1.426-.8311l.5053-.6541c.2923-.504.4394-1.0477.4412-1.6311v-1.7881c.0168-.4449-.076-.86-.2783-1.2451-.1303-.4006-.3531-.7473-.6682-1.04-.2927-.3151-.6394-.5379-1.04-.6682-.3851-.2023-.8002-.2951-1.2451-.2783l-.8591.1154c-.5475.1535-1.0228.4306-1.426.8311l-.5053.6541c-.2923.504-.4394,1.0477-.4412,1.6311h0Z" style="fill:#184968; stroke-width:0px;"/></svg>